<?xml version="1.0" encoding="UTF-8"?>
<!DOCTYPE svg PUBLIC "-//W3C//DTD SVG 1.1//EN" "http://www.w3.org/Graphics/SVG/1.1/DTD/svg11.dtd">
<!-- Creator: CorelDRAW 2020 (64-Bit) -->
<svg xmlns="http://www.w3.org/2000/svg" xml:space="preserve" width="39mm" height="45mm" version="1.1" style="shape-rendering:geometricPrecision; text-rendering:geometricPrecision; image-rendering:optimizeQuality; fill-rule:evenodd; clip-rule:evenodd"
viewBox="0 0 3900 4500"
 xmlns:xlink="http://www.w3.org/1999/xlink"
 xmlns:xodm="http://www.corel.com/coreldraw/odm/2003">
 <defs>
  <style type="text/css">
   <![CDATA[
    .fil0 {fill:#FFCC29;fill-rule:nonzero}
   ]]>
  </style>
 </defs>
 <g id="Слой_x0020_1">
  <metadata id="CorelCorpID_0Corel-Layer"/>
  <g id="_2200816562272">
   <polygon class="fil0" points="1886.71,968.13 1886.71,1124.41 1401.21,1400.67 1401.21,1244.39 "/>
   <polygon class="fil0" points="1886.71,1525.92 1886.71,1682.17 1401.21,1958.43 1401.21,1802.15 "/>
   <path class="fil0" d="M2584.23 1654.84l711.21 403.96 0 156.25 -711.21 -403.97 0 -156.24zm0 -464.4l711.21 403.97 0 156.21 -711.21 -403.97 0 -156.21zm306.59 1145.58l49.81 0 28.3 43.32 475.7 730.35 0 -1710.19 -1102.73 -627.38 0 1563.9 548.92 0z"/>
   <polygon class="fil0" points="1221.51,2336 1221.51,895.15 2068.94,413.05 2068.94,2048.81 2196.59,2210.1 2196.59,152.34 1093.86,779.76 1093.86,2336 "/>
   <path class="fil0" d="M481.26 2355.22l359.89 -204.78 0 115.85 -359.89 204.75 0 -115.82zm0 -413.42l359.89 -204.75 0 115.82 -359.89 204.72 0 -115.79zm380.98 437.55l28.26 -43.35 49.82 0 8.28 0 0 -918.32 -562.06 319.76 0 1372.24 475.7 -730.33z"/>
   <path class="fil0" d="M3414.72 3240.34l-523.91 -804.37 -638.82 0 -336.32 -424.78 -336.35 424.78 -638.99 0 -523.92 804.37 -23.17 35.63 45.84 0 188.81 0 0 459.84c36.81,18.1 75.02,34.79 113.07,49.64 132.16,51.4 283.35,93.17 447.71,124.04l0 -633.52 0.31 0 726.69 -997.69 726.6 997.69 0.22 0 0 633.52c164.33,-30.87 315.56,-72.64 447.69,-124.04 38.08,-14.85 76.26,-31.54 113.07,-49.64l0 -459.84 188.81 0 45.87 0 -23.21 -35.63z"/>
   <path class="fil0" d="M1915.57 4401.4c1033.23,0 1870.85,-357.11 1870.85,-797.59 0,-163.37 -115.18,-315.17 -312.71,-441.61 115.88,90.84 181.18,193.29 181.18,301.66 0,374.54 -778.72,678.18 -1739.32,678.18 -960.6,0 -1739.31,-303.64 -1739.31,-678.18 0,-108.37 65.29,-210.82 181.21,-301.66 -197.56,126.44 -312.75,278.24 -312.75,441.61 0,440.48 837.63,797.59 1870.85,797.59z"/>
   <path class="fil0" d="M2196.61 3642.36l-238.23 0 0 -251.39 238.23 0 0 251.39zm-0.77 310.87l-237.46 0 0 -250.61 237.46 0 0 250.61zm-323.18 -310.87l-237.68 0 0 -250.82 237.68 0 0 250.82zm0 310.38l-236.98 0 0 -250.12 236.98 0 0 250.12zm43 -1398.1l-567.45 779.01 0 771.49c177.8,23.88 368.61,36.93 567.35,36.93 198.77,0 389.61,-13.05 567.38,-36.93l0 -771.6 -567.28 -778.9z"/>
  </g>
 </g>
</svg>
